<?xml version="1.0" standalone="no"?>
<!DOCTYPE svg PUBLIC "-//W3C//DTD SVG 20010904//EN"
 "http://www.w3.org/TR/2001/REC-SVG-20010904/DTD/svg10.dtd">
<svg version="1.0" xmlns="http://www.w3.org/2000/svg"
 width="1024.000000pt" height="1024.000000pt" viewBox="0 0 1024.000000 1024.000000"
 preserveAspectRatio="xMidYMid meet">
<metadata>
Created by potrace 1.14, written by Peter Selinger 2001-2017
</metadata>
<g transform="translate(0.000000,1024.000000) scale(0.100000,-0.100000)"
fill="#000000" stroke="none">
<path d="M5117 10054 c-1 -1 -56 -4 -122 -8 -66 -3 -131 -8 -145 -10 -14 -3
-52 -7 -85 -11 -33 -3 -69 -8 -80 -11 -11 -2 -31 -6 -45 -8 -14 -2 -41 -7 -60
-11 -19 -3 -44 -8 -55 -10 -11 -2 -20 -4 -20 -5 0 -1 -13 -4 -30 -6 -16 -3
-41 -9 -55 -14 -14 -5 -36 -12 -50 -14 -31 -6 -128 -34 -155 -45 -11 -5 -67
-26 -125 -46 -58 -21 -133 -51 -167 -66 -34 -16 -66 -29 -72 -29 -6 0 -11 -4
-11 -10 0 -5 -7 -10 -14 -10 -8 0 -42 -16 -75 -35 -32 -19 -64 -35 -70 -35 -6
0 -11 -4 -11 -10 0 -5 -5 -10 -12 -10 -14 0 -202 -119 -283 -179 -194 -145
-401 -343 -538 -516 -4 -5 -28 -37 -52 -70 -25 -33 -48 -64 -53 -70 -31 -41
-142 -224 -185 -308 -69 -132 -171 -380 -183 -442 -2 -11 -13 -51 -24 -90 -20
-70 -25 -90 -35 -142 -3 -16 -10 -50 -15 -78 -28 -147 -34 -226 -34 -455 -1
-193 8 -341 21 -363 2 -4 6 -20 9 -35 9 -54 57 -189 100 -281 121 -258 353
-510 599 -652 92 -53 198 -103 228 -107 4 -1 20 -8 35 -16 29 -15 192 -61 252
-71 19 -3 46 -8 60 -10 136 -24 336 -24 520 1 67 9 266 62 300 79 16 8 35 15
42 15 22 0 224 107 300 158 99 68 130 94 223 187 113 114 185 204 185 233 0 7
4 12 8 12 13 0 72 138 93 220 98 372 -38 756 -351 993 -110 83 -236 141 -395
183 -87 23 -235 34 -337 25 -76 -7 -75 -8 -13 73 19 25 35 49 35 52 0 4 44 50
98 103 251 248 563 373 922 371 47 0 96 -2 110 -4 14 -2 48 -7 75 -11 226 -30
502 -158 651 -302 13 -13 28 -23 34 -23 5 0 10 -3 10 -7 0 -5 19 -28 43 -53
23 -25 56 -63 72 -85 16 -22 32 -42 35 -45 14 -13 90 -151 110 -200 12 -30 26
-64 30 -75 13 -30 30 -90 36 -121 3 -15 7 -30 9 -34 7 -11 18 -135 18 -210 1
-125 -23 -280 -58 -365 -5 -11 -16 -41 -26 -66 -21 -54 -75 -158 -95 -180 -8
-8 -14 -19 -14 -23 0 -15 -88 -122 -151 -184 -113 -110 -246 -199 -394 -262
-150 -65 -447 -227 -475 -260 -3 -3 -21 -17 -40 -30 -155 -106 -382 -328 -467
-458 -103 -156 -180 -326 -227 -502 -57 -213 -62 -274 -60 -740 3 -500 3 -501
54 -642 17 -45 29 -82 27 -83 -1 -1 -32 -16 -69 -35 -38 -19 -68 -38 -68 -42
0 -4 -6 -8 -13 -8 -15 0 -55 -32 -136 -106 -54 -51 -170 -204 -154 -204 4 0 3
-4 -3 -8 -19 -13 -54 -102 -75 -190 -22 -92 -29 -230 -16 -317 11 -71 55 -211
84 -269 21 -42 23 -51 11 -60 -43 -33 -47 -123 -6 -157 18 -17 20 -22 9 -45
-6 -15 -10 -29 -7 -31 2 -3 -1 -21 -8 -41 -17 -52 -13 -186 9 -257 10 -33 19
-62 20 -65 0 -3 15 -32 32 -65 48 -93 115 -141 175 -125 21 6 32 2 57 -21 17
-15 31 -36 31 -45 0 -30 41 -156 73 -224 29 -62 86 -158 114 -190 115 -134
203 -206 337 -274 48 -25 91 -45 95 -44 3 1 18 -4 33 -10 67 -28 185 -41 328
-38 160 5 183 8 315 41 104 26 163 52 258 112 79 50 221 187 263 253 16 25 32
47 35 50 28 22 120 246 133 326 9 54 55 84 117 77 35 -4 51 0 79 19 46 31 114
135 141 217 27 81 33 221 15 309 -12 58 -11 64 5 72 17 10 36 54 34 80 -1 8
-3 23 -3 32 -1 10 -17 33 -35 51 l-33 34 19 53 c70 205 80 397 27 567 -37 119
-119 253 -213 345 -65 64 -201 161 -211 151 -3 -4 -6 -2 -6 4 0 6 -21 18 -47
28 -27 10 -51 22 -54 27 -4 6 4 32 17 59 46 95 78 262 74 388 -1 25 -3 48 -6
53 -3 4 -2 8 3 8 9 0 8 92 -1 115 -3 8 -2 15 2 15 8 0 5 157 -3 177 -2 7 -1
13 4 13 5 0 7 12 5 28 -5 35 -5 168 0 208 6 51 39 148 53 157 7 4 13 14 13 22
0 24 104 119 165 151 33 17 110 53 170 80 173 76 302 161 473 311 116 101 287
278 355 368 13 17 91 121 112 150 11 15 29 42 40 60 215 350 313 593 390 965
8 42 18 109 21 145 1 22 3 40 4 40 13 0 19 501 7 565 -4 19 -9 53 -12 75 -32
279 -142 627 -277 878 -27 48 -48 92 -48 98 0 5 -4 9 -10 9 -5 0 -10 5 -10 10
0 12 -52 94 -63 98 -4 2 -5 8 -1 13 3 5 0 9 -5 9 -6 0 -11 5 -11 11 0 6 -6 17
-12 24 -7 8 -24 30 -38 50 -40 58 -147 191 -190 237 -22 23 -40 42 -40 44 0 8
-205 200 -265 250 -150 122 -418 304 -449 304 -8 0 -16 4 -18 9 -5 14 -240
125 -358 169 -98 37 -283 97 -326 106 -10 3 -48 11 -84 20 -75 18 -225 44
-290 52 -25 3 -61 7 -80 9 -83 10 -376 24 -383 19z m-527 -6684 c0 -10 117
-131 160 -165 143 -114 320 -182 520 -201 41 -4 82 -6 90 -6 8 1 48 4 88 7 40
3 82 10 93 15 10 6 19 9 19 6 0 -3 21 2 48 10 26 8 54 17 63 19 63 14 230 110
301 173 52 46 118 116 118 125 0 11 122 -55 175 -96 108 -82 242 -257 260
-341 1 -6 7 -23 13 -38 6 -15 13 -40 16 -55 2 -15 5 -28 6 -28 4 0 11 -69 13
-135 4 -87 -24 -258 -42 -270 -7 -4 -21 -5 -31 -3 -9 3 -36 0 -59 -7 -50 -13
-75 -47 -69 -94 3 -28 0 -37 -19 -45 -12 -5 -41 -27 -63 -47 -45 -41 -44 -41
-77 21 -9 17 -19 32 -22 35 -4 3 -15 16 -24 30 -22 32 -167 180 -177 180 -4 0
-20 11 -35 24 -26 23 -195 116 -212 118 -5 0 -18 4 -30 9 -128 48 -371 69
-480 40 -21 -6 -53 -13 -72 -16 -73 -13 -193 -69 -307 -144 -171 -113 -212
-150 -306 -272 l-51 -67 -28 30 c-16 16 -29 26 -29 23 0 -3 -9 3 -20 13 -13
12 -19 28 -16 43 5 32 -17 72 -51 94 -25 17 -63 21 -133 13 -14 -2 -25 2 -25
7 0 6 -3 15 -6 20 -4 6 -13 35 -22 65 -88 314 19 633 279 837 28 21 65 45 83
52 17 8 31 17 31 22 0 5 7 9 15 9 8 0 15 -4 15 -10z"/>
<path d="M5117 483 c-2 -1 -44 -5 -93 -8 -79 -5 -205 -19 -260 -29 -10 -2 -39
-7 -64 -11 -133 -22 -251 -74 -277 -122 -17 -31 -17 -33 3 -60 56 -78 269
-133 609 -159 195 -15 636 -9 796 12 44 5 191 29 239 39 51 10 156 47 188 67
89 55 61 130 -67 177 -60 22 -176 50 -236 57 -16 2 -44 6 -61 9 -17 3 -60 8
-95 11 -35 3 -84 7 -109 10 -49 6 -568 13 -573 7z"/>
</g>
</svg>
