<svg width="24" height="24" viewBox="0 0 24 24" fill="none" xmlns="http://www.w3.org/2000/svg">
<rect x="1" y="1" width="22" height="22" rx="11" fill="#D4D4D8"/>
<rect x="1" y="1" width="22" height="22" rx="11" stroke="#D4D4D8" stroke-width="2"/>
<path d="M17 9.99996V12M11.125 8.74996H9.4C8.55992 8.74996 8.13988 8.74996 7.81901 8.91345C7.53677 9.05726 7.3073 9.28673 7.16349 9.56897C7 9.88984 7 10.3099 7 11.15L7 11.75C7 12.2159 7 12.4489 7.07612 12.6326C7.17762 12.8777 7.37229 13.0723 7.61732 13.1738C7.80109 13.25 8.03406 13.25 8.5 13.25V15.375C8.5 15.491 8.5 15.5491 8.50482 15.598C8.55158 16.0728 8.92721 16.4484 9.40198 16.4951C9.45087 16.5 9.50892 16.5 9.625 16.5C9.74109 16.5 9.79913 16.5 9.84802 16.4951C10.3228 16.4484 10.6984 16.0728 10.7452 15.598C10.75 15.5491 10.75 15.491 10.75 15.375V13.25H11.125C12.0082 13.25 13.0886 13.7234 13.9221 14.1778C14.4084 14.4429 14.6515 14.5754 14.8108 14.5559C14.9584 14.5378 15.0701 14.4715 15.1567 14.3505C15.25 14.22 15.25 13.959 15.25 13.4368V8.5631C15.25 8.04095 15.25 7.77988 15.1567 7.6494C15.0701 7.52841 14.9584 7.46211 14.8108 7.44402C14.6515 7.42452 14.4084 7.55706 13.9221 7.82213C13.0886 8.27651 12.0082 8.74996 11.125 8.74996Z" stroke="#52525B" stroke-linecap="round" stroke-linejoin="round"/>
</svg>
