<svg width="24" height="24" viewBox="0 0 24 24" fill="none" xmlns="http://www.w3.org/2000/svg">
<rect x="1" y="1" width="22" height="22" rx="11" fill="#A855F7"/>
<rect x="1" y="1" width="22" height="22" rx="11" stroke="#D4D4D8" stroke-width="2"/>
<path d="M7.24977 10.5H16.7498M10.9998 7.5L9.99977 10.5L11.9998 16.25L13.9998 10.5L12.9998 7.5M12.3071 16.1313L16.7864 10.7561C16.8623 10.665 16.9002 10.6194 16.9148 10.5686C16.9275 10.5238 16.9275 10.4762 16.9148 10.4314C16.9002 10.3806 16.8623 10.335 16.7864 10.2439L14.6197 7.64393C14.5756 7.59102 14.5536 7.56457 14.5266 7.54555C14.5026 7.5287 14.4759 7.51619 14.4476 7.50858C14.4157 7.5 14.3813 7.5 14.3124 7.5H9.68712C9.61825 7.5 9.58382 7.5 9.55191 7.50858C9.52364 7.51619 9.49692 7.5287 9.47298 7.54555C9.44596 7.56457 9.42392 7.59102 9.37983 7.64393L7.21316 10.2439C7.13725 10.335 7.09929 10.3806 7.08479 10.4314C7.072 10.4762 7.072 10.5238 7.08479 10.5686C7.09929 10.6194 7.13725 10.665 7.21316 10.7561L11.6925 16.1313C11.798 16.2579 11.8508 16.3212 11.9139 16.3443C11.9694 16.3646 12.0302 16.3646 12.0856 16.3443C12.1488 16.3212 12.2015 16.2579 12.3071 16.1313Z" stroke="white" stroke-linecap="round" stroke-linejoin="round"/>
</svg>
