<svg width="24" height="24" viewBox="0 0 24 24" fill="none" xmlns="http://www.w3.org/2000/svg">
<rect x="1" y="1" width="22" height="22" rx="11" fill="#D4D4D8"/>
<rect x="1" y="1" width="22" height="22" rx="11" stroke="#D4D4D8" stroke-width="2"/>
<path d="M14.5 16H14.4C13.5599 16 13.1399 16 12.819 15.8365C12.5368 15.6927 12.3073 15.4632 12.1635 15.181C12 14.8601 12 14.4401 12 13.6V10.4C12 9.55992 12 9.13988 12.1635 8.81901C12.3073 8.53677 12.5368 8.3073 12.819 8.16349C13.1399 8 13.5599 8 14.4 8H14.5M14.5 16C14.5 16.5523 14.9477 17 15.5 17C16.0523 17 16.5 16.5523 16.5 16C16.5 15.4477 16.0523 15 15.5 15C14.9477 15 14.5 15.4477 14.5 16ZM14.5 8C14.5 8.55228 14.9477 9 15.5 9C16.0523 9 16.5 8.55228 16.5 8C16.5 7.44772 16.0523 7 15.5 7C14.9477 7 14.5 7.44772 14.5 8ZM9.5 12L14.5 12M9.5 12C9.5 12.5523 9.05228 13 8.5 13C7.94772 13 7.5 12.5523 7.5 12C7.5 11.4477 7.94772 11 8.5 11C9.05228 11 9.5 11.4477 9.5 12ZM14.5 12C14.5 12.5523 14.9477 13 15.5 13C16.0523 13 16.5 12.5523 16.5 12C16.5 11.4477 16.0523 11 15.5 11C14.9477 11 14.5 11.4477 14.5 12Z" stroke="#52525B" stroke-linecap="round" stroke-linejoin="round"/>
</svg>
