<svg xmlns="http://www.w3.org/2000/svg" xmlns:xlink="http://www.w3.org/1999/xlink" width="54" height="54" viewBox="0 0 54 54">
  <defs>
    <linearGradient id="linear-gradient" x1="0.101" y1="0.5" x2="8.606" y2="0.5" gradientUnits="objectBoundingBox">
      <stop offset="0" stop-color="#4e38f3"/>
      <stop offset="1" stop-color="#7e42fe"/>
    </linearGradient>
    <filter id="blockstack" x="0" y="0" width="54" height="54" filterUnits="userSpaceOnUse">
      <feOffset dy="3" input="SourceAlpha"/>
      <feGaussianBlur stdDeviation="3" result="blur"/>
      <feFlood flood-opacity="0.161"/>
      <feComposite operator="in" in2="blur"/>
      <feComposite in="SourceGraphic"/>
    </filter>
  </defs>
  <g transform="matrix(1, 0, 0, 1, 0, 0)" filter="url(#blockstack)">
    <path id="blockstack-2" data-name="blockstack" d="M18,36A18,18,0,1,0,0,18,18,18,0,0,0,18,36ZM15,12a3,3,0,1,1-3-3A3,3,0,0,1,15,12Zm12,0a3,3,0,1,1-3-3A3,3,0,0,1,27,12Zm0,12a3,3,0,1,1-3-3A3,3,0,0,1,27,24ZM15,24a3,3,0,1,1-3-3A3,3,0,0,1,15,24Z" transform="translate(9 6)" fill-rule="evenodd" fill="url(#linear-gradient)"/>
  </g>
</svg>
