<svg xmlns="http://www.w3.org/2000/svg" width="1157" height="315" fill="none"><g clip-path="url(#a)"><path fill="#FF671D" d="M331.135 2.15s-75.284 20.757-103.758 28.84c-28.473 8.082-46.127 68.913-46.317 69.482l-83.522 23.414s-30.372 6.034-30.372 37.417c0 29.789 30.372 18.556 30.372 18.556s14.54-3.795 42.938-11.954c28.398-8.158 40.508-66.902 40.584-67.433l150.075-41.743s30.371-6.527 30.371-37.947c.152-29.865-30.371-18.633-30.371-18.633ZM31.024 313.17s81.016-22.769 109.414-30.889c28.398-8.121 40.47-66.903 40.622-67.434l83.523-23.414s30.371-6.034 30.371-37.417c0-29.789-30.599-19.201-30.599-19.201s-14.503 3.795-42.9 11.953c-28.398 8.159-40.509 67.548-40.623 68.079L30.796 256.59S.424 263.079.424 294.538c.076 29.827 30.6 18.632 30.6 18.632Z"/><path fill="#fff" d="M422.554 104.115h64.16v9.031h-54.175v37.948h50.379v9.07h-50.379v50.812h-9.985V104.115ZM525.021 104.115h33.864a57.4 57.4 0 0 1 7.897.911 48.133 48.133 0 0 1 8.618 2.39 24.77 24.77 0 0 1 7.859 4.858 25.38 25.38 0 0 1 5.77 8.007 27.615 27.615 0 0 1 2.278 11.802 27.2 27.2 0 0 1-2.657 12.712 24.337 24.337 0 0 1-6.682 8.083 27.812 27.812 0 0 1-8.846 4.63 56.976 56.976 0 0 1-9.225 2.125l31.169 51.419h-11.39L553.57 160.24h-18.603v50.812h-9.946V104.115Zm9.984 47.207h21.185a35.509 35.509 0 0 0 12.794-1.973 21.34 21.34 0 0 0 7.593-4.857 15.18 15.18 0 0 0 3.796-6.186c.629-1.964.961-4.01.987-6.072a20.338 20.338 0 0 0-.987-6.033 15.186 15.186 0 0 0-3.796-6.224 21.266 21.266 0 0 0-7.593-4.819 34.725 34.725 0 0 0-12.794-1.974h-21.185v38.138ZM665.87 104.115h10.288l45.064 107.089h-11.389l-11.617-28.423h-56.947l-12.111 28.423h-10.44l47.152-107.089Zm4.669 10.891-24.942 58.857h49.354l-24.412-58.857ZM843.241 194.431a45.028 45.028 0 0 1-17.844 14.952 53.165 53.165 0 0 1-21.943 4.553 59.084 59.084 0 0 1-22.475-4.174 50.178 50.178 0 0 1-17.464-11.65 52.5 52.5 0 0 1-11.389-17.836 64.218 64.218 0 0 1 0-45.158 52.542 52.542 0 0 1 11.389-17.759 50.89 50.89 0 0 1 17.464-11.726 57.668 57.668 0 0 1 22.475-4.25 53.174 53.174 0 0 1 20.349 3.794 40.427 40.427 0 0 1 16.704 13.017l-8.2 6.792a29.383 29.383 0 0 0-12.794-11.043 38.737 38.737 0 0 0-15.945-3.491 46.834 46.834 0 0 0-18.983 3.795 41.762 41.762 0 0 0-14.312 9.98 44.048 44.048 0 0 0-9.074 15.18 55.802 55.802 0 0 0 0 37.188 44.048 44.048 0 0 0 9.074 15.18 42.417 42.417 0 0 0 14.312 9.98 46.834 46.834 0 0 0 18.983 3.795 39.08 39.08 0 0 0 17.008-4.023 41.338 41.338 0 0 0 7.973-5.161 32.46 32.46 0 0 0 6.643-7.589l8.049 5.654ZM903.643 113.146h-36.56v-9.031h83.142v9.031h-36.597v98.02h-9.985v-98.02ZM1007.55 104.115h10.29l45.1 107.089h-11.39l-11.65-28.423h-56.531l-12.111 28.423h-10.44l46.732-107.089Zm4.71 10.891-24.943 58.857h49.353l-24.41-58.857ZM1096.73 104.115h9.99v98.019h49.96v9.07h-59.95V104.115Z"/></g><defs><clipPath id="a"><path fill="#fff" d="M0 0h1157v315H0z"/></clipPath></defs></svg>