<svg xmlns="http://www.w3.org/2000/svg" xmlns:xlink="http://www.w3.org/1999/xlink" width="54" height="54" viewBox="0 0 54 54">
  <defs>
    <linearGradient id="linear-gradient" x1="0.101" y1="0.5" x2="8.606" y2="0.5" gradientUnits="objectBoundingBox">
      <stop offset="0" stop-color="#4e38f3"/>
      <stop offset="1" stop-color="#7e42fe"/>
    </linearGradient>
    <filter id="github" x="0" y="0" width="54" height="54" filterUnits="userSpaceOnUse">
      <feOffset dy="3" input="SourceAlpha"/>
      <feGaussianBlur stdDeviation="3" result="blur"/>
      <feFlood flood-opacity="0.161"/>
      <feComposite operator="in" in2="blur"/>
      <feComposite in="SourceGraphic"/>
    </filter>
  </defs>
  <g transform="matrix(1, 0, 0, 1, 0, 0)" filter="url(#github)">
    <path id="github-2" data-name="github" d="M18.026,17.9h-.053c-2.234,0-4.2-.566-5.366.5a2.938,2.938,0,0,0-.991,2.244c0,3.473,2.783,3.9,6.356,3.9h.053c3.573,0,6.356-.427,6.356-3.9a2.938,2.938,0,0,0-.991-2.244C22.228,17.339,20.26,17.9,18.026,17.9ZM14.988,22.65c-.68,0-1.231-.764-1.231-1.705s.551-1.7,1.231-1.7,1.232.763,1.232,1.7S15.668,22.65,14.988,22.65Zm6.024,0c-.68,0-1.232-.764-1.232-1.705s.552-1.7,1.232-1.7,1.231.763,1.231,1.7S21.691,22.65,21.012,22.65ZM18,0A18,18,0,1,0,36,18,18,18,0,0,0,18,0Zm1.642,25.388-1.642,0-1.642,0c-1.426,0-7.074-.109-7.074-6.917A5.135,5.135,0,0,1,10.7,14.8a8.42,8.42,0,0,1,.6-4.194,10.666,10.666,0,0,1,4.313,1.97A10.249,10.249,0,0,1,18,12.355a10.242,10.242,0,0,1,2.387.225,10.664,10.664,0,0,1,4.312-1.97,8.424,8.424,0,0,1,.6,4.194,5.134,5.134,0,0,1,1.416,3.667C26.716,25.279,21.068,25.388,19.642,25.388Z" transform="translate(9 6)" fill="url(#linear-gradient)"/>
  </g>
</svg>
