<svg xmlns="http://www.w3.org/2000/svg" width="14" height="9" fill="none">
  <path fill="#fff" d="M12.96.69c-.202-.16-.444-.378-.886-.433-.414-.055-.836.222-1.12.406-.286.183-.825.721-1.048.885-.222.164-.793.316-1.71.866-.919.55-4.52 2.858-4.52 2.858l.937.012-4.18 2.149h.419l-.602.456s.531.14.977-.14v.128s4.976-1.957 5.937-1.45l-.586.171c.05 0 .996.062.996.062a1.338 1.338 0 0 0 .602.968c.57.374.582.58.582.58s-.297.122-.297.274c0 0 .437-.133.844-.121.258.01.513.05.761.12 0 0-.03-.163-.425-.272-.395-.11-.786-.538-.977-.772a1.091 1.091 0 0 1-.16-1.069c.137-.355.613-.55 1.598-1.057 1.16-.6 1.425-1.045 1.59-1.392.163-.347.406-1.037.542-1.361.172-.417.383-.64.559-.772.176-.133.957-.425.957-.425s-.598-.519-.79-.671Z"/>
</svg>
