<svg xmlns="http://www.w3.org/2000/svg" width="10" height="6" fill="none"><path fill="#171923" d="M8.974.793C8.839.687 8.677.541 8.383.505c-.276-.037-.557.148-.748.27-.19.122-.55.481-.697.59-.149.11-.53.21-1.141.577-.612.367-3.013 1.906-3.013 1.906l.625.008L.622 5.288h.279L.5 5.593s.354.093.651-.094v.086s3.318-1.305 3.958-.967l-.39.114c.034 0 .664.042.664.042a.892.892 0 0 0 .4.644c.381.25.389.388.389.388s-.198.08-.198.182c0 0 .292-.089.562-.08.172.006.343.033.508.08 0 0-.02-.11-.284-.182-.263-.073-.523-.359-.65-.515a.727.727 0 0 1-.107-.712c.09-.237.408-.367 1.065-.705.773-.4.95-.697 1.06-.928.109-.231.27-.692.362-.907.114-.279.255-.427.372-.515.117-.089.638-.284.638-.284S9.102.895 8.974.793Z"/></svg>