<svg width="32" height="32" viewBox="0 0 32 32" fill="none" xmlns="http://www.w3.org/2000/svg">
<path d="M23.125 11.1525C22.6182 10.8485 21.9594 10.8485 21.402 11.1525L17.4491 13.4837L14.7632 15.0041L10.8103 17.3352C10.3035 17.6393 9.6447 17.6393 9.08724 17.3352L5.94522 15.5108C5.43844 15.2068 5.08369 14.6493 5.08369 14.0412V10.443C5.08369 9.83491 5.38776 9.27746 5.94522 8.97339L9.03657 7.19967C9.54334 6.8956 10.2022 6.8956 10.7596 7.19967L13.851 8.97339C14.3577 9.27746 14.7125 9.83491 14.7125 10.443V12.7742L17.3984 11.2032V8.87204C17.3984 8.2639 17.0943 7.70645 16.5369 7.40238L10.8103 4.05764C10.3035 3.75357 9.6447 3.75357 9.08724 4.05764L3.25929 7.40238C2.70183 7.70645 2.39777 8.2639 2.39777 8.87204V15.6122C2.39777 16.2203 2.70183 16.7778 3.25929 17.0818L9.08724 20.4266C9.59402 20.7307 10.2528 20.7307 10.8103 20.4266L14.7632 18.1461L17.4491 16.5751L21.402 14.2946C21.9087 13.9905 22.5676 13.9905 23.125 14.2946L26.2164 16.0683C26.7231 16.3724 27.0779 16.9298 27.0779 17.5379V21.1361C27.0779 21.7442 26.7738 22.3017 26.2164 22.6057L23.125 24.4301C22.6182 24.7342 21.9594 24.7342 21.402 24.4301L18.3106 22.6564C17.8038 22.3523 17.4491 21.7949 17.4491 21.1868V18.8556L14.7632 20.4266V22.7578C14.7632 23.3659 15.0672 23.9234 15.6247 24.2274L21.4526 27.5722C21.9594 27.8762 22.6182 27.8762 23.1757 27.5722L29.0036 24.2274C29.5104 23.9234 29.8652 23.3659 29.8652 22.7578V16.0176C29.8652 15.4095 29.5611 14.852 29.0036 14.548L23.125 11.1525Z" fill="#8247E5"/>
</svg>
